<svg width="512" height="512" viewBox="0 0 512 512" fill="none" xmlns="http://www.w3.org/2000/svg">
<g clip-path="url(#clip0_1_1375)">
<path d="M402 0H110C49.2487 0 0 49.2487 0 110V402C0 462.751 49.2487 512 110 512H402C462.751 512 512 462.751 512 402V110C512 49.2487 462.751 0 402 0Z" fill="#141418"/>
<path opacity="0.4" d="M349.957 343L313.457 276.75H303.207V343H260.457V167.5H332.207C346.04 167.5 357.79 169.917 367.457 174.75C377.29 179.583 384.624 186.25 389.457 194.75C394.29 203.083 396.707 212.417 396.707 222.75C396.707 234.417 393.374 244.833 386.707 254C380.207 263.167 370.54 269.667 357.707 273.5L398.207 343H349.957ZM303.207 246.5H329.707C337.54 246.5 343.374 244.583 347.207 240.75C351.207 236.917 353.207 231.5 353.207 224.5C353.207 217.833 351.207 212.583 347.207 208.75C343.374 204.917 337.54 203 329.707 203H303.207V246.5Z" fill="#2AADA0"/>
<path d="M256.723 253C268.923 255.6 278.723 261.7 286.123 271.3C293.523 280.7 297.223 291.5 297.223 303.7C297.223 321.3 291.023 335.3 278.623 345.7C266.423 355.9 249.323 361 227.323 361H129.223V150.4H224.023C245.423 150.4 262.123 155.3 274.123 165.1C286.323 174.9 292.423 188.2 292.423 205C292.423 217.4 289.123 227.7 282.523 235.9C276.123 244.1 267.523 249.8 256.723 253ZM180.523 235.6H214.123C222.523 235.6 228.923 233.8 233.323 230.2C237.923 226.4 240.223 220.9 240.223 213.7C240.223 206.5 237.923 201 233.323 197.2C228.923 193.4 222.523 191.5 214.123 191.5H180.523V235.6ZM218.323 319.6C226.923 319.6 233.523 317.7 238.123 313.9C242.923 309.9 245.323 304.2 245.323 296.8C245.323 289.4 242.823 283.6 237.823 279.4C233.023 275.2 226.323 273.1 217.723 273.1H180.523V319.6H218.323Z" fill="#141418"/>
<path d="M240.575 253.2C251.962 255.627 261.108 261.32 268.015 270.28C274.922 279.053 278.375 289.133 278.375 300.52C278.375 316.947 272.588 330.013 261.015 339.72C249.628 349.24 233.668 354 213.135 354H121.575V157.44H210.055C230.028 157.44 245.615 162.013 256.815 171.16C268.202 180.307 273.895 192.72 273.895 208.4C273.895 219.973 270.815 229.587 264.655 237.24C258.682 244.893 250.655 250.213 240.575 253.2ZM169.455 236.96H200.815C208.655 236.96 214.628 235.28 218.735 231.92C223.028 228.373 225.175 223.24 225.175 216.52C225.175 209.8 223.028 204.667 218.735 201.12C214.628 197.573 208.655 195.8 200.815 195.8H169.455V236.96ZM204.735 315.36C212.762 315.36 218.922 313.587 223.215 310.04C227.695 306.307 229.935 300.987 229.935 294.08C229.935 287.173 227.602 281.76 222.935 277.84C218.455 273.92 212.202 271.96 204.175 271.96H169.455V315.36H204.735Z" fill="#2AADA0"/>
</g>
<defs>
<clipPath id="clip0_1_1375">
<rect width="512" height="512" fill="white"/>
</clipPath>
</defs>
</svg>
